:SAMPLES-PER-SECOND 30
:FULLY-SPECIFIED
:DEGREES
528
root  -34.9334 39.1521 0.714346 -178.998 -81.8362 -159.808
RightUpLeg  -45.9182 -15.1599 7.23186
RightLeg  17.8066 0.323724 0.605692
RightFoot  8.09815 0.358854 -1.77127
RightToes  0.000482159 0.542163 -0.142577
Spine  64.02 -2.45118 6.21265
Spine1  9.31817 3.64427 -6.7461
HEad  -39.0923 -3.49588 -2.57433
LeftShoulder1  10.3407 -27.6981 -26.7711
LeftArm  -70.718 -59.1004 23.623
LeftForeArm  8.37413 -10.6621 0.55606
LeftHand  -0.25398 0.0180481 5.50724
RightShoulder  4.15778 14.8881 15.8633
RightArm  -70.2202 63.688 -18.4708
RightForeArm  -4.61025 8.06403 2.7152
RightHand  -0.0617503 7.9178 -0.980805
LeftUpLeg  -48.4793 19.2927 -14.0014
LeftLeg  15.6608 -3.08647 -2.25161
LeftFoot  8.57719 -2.00199 11.065
LeftToes  1.06246e-005 4.65854e-005 -8.18503e-006
529
root  -35.2547 39.163 0.613469 179.025 -82.4637 -156.3
RightUpLeg  -47.0475 -14.4594 7.42711
RightLeg  18.2981 -0.830704 0.0807354
RightFoot  7.54061 0.413438 -2.17201
RightToes  0.000482159 0.542163 -0.142577
Spine  65.4703 -2.82405 6.1279
Spine1  8.45599 3.16006 -6.79993
HEad  -39.8227 -2.64349 -2.39542
LeftShoulder1  9.74855 -27.2361 -25.3111
LeftArm  -74.7077 -57.9724 22.3818
LeftForeArm  3.58231 -14.2981 0.240989
LeftHand  -0.25398 0.0180481 5.50724
RightShoulder  4.15518 14.7115 16.0872
RightArm  -72.6673 62.8536 -19.2869
RightForeArm  -2.43442 10.3618 2.51459
RightHand  0.654126 8.78392 4.8015
LeftUpLeg  -49.9311 18.8749 -14.5026
LeftLeg  16.0096 -3.73814 -2.01893
LeftFoot  8.25713 -1.99728 11.2325
LeftToes  1.06246e-005 4.65854e-005 -8.18503e-006
530
root  -35.5531 39.1733 0.544799 176.498 -82.6246 -152.481
RightUpLeg  -47.9401 -14.1315 8.00054
RightLeg  18.4779 -1.3344 -0.199907
RightFoot  7.09497 0.372727 -1.99543
RightToes  0.000482159 0.542163 -0.142577
Spine  66.5567 -3.13658 6.1024
Spine1  8.18035 3.00955 -7.23879
HEad  -40.8998 -2.09033 -2.47766
LeftShoulder1  9.66627 -26.6861 -25.6428
LeftArm  -80.9032 -56.8347 22.5688
LeftForeArm  6.33593 -19.3273 -2.20917
LeftHand  -0.25398 0.0180481 5.50724
RightShoulder  4.1363 14.5608 16.1821
RightArm  -73.4449 61.8193 -20.4999
RightForeArm  -3.42066 13.4982 3.20283
RightHand  0.941274 10.1172 6.51854
LeftUpLeg  -51.4457 19.0496 -15.098
LeftLeg  16.6753 -4.60296 -1.8698
LeftFoot  7.90095 -1.99318 11.4317
LeftToes  1.06246e-005 4.65854e-005 -8.18503e-006
531
root  -35.801 39.1865 0.479846 176.28 -82.6513 -151.269
RightUpLeg  -48.8177 -14.3442 8.64573
RightLeg  18.6542 -0.986969 -0.152162
RightFoot  6.97412 0.345941 -1.84807
RightToes  0.000482159 0.542163 -0.142577
Spine  67.2352 -3.15099 6.0209
Spine1  8.30236 3.06409 -7.43466
HEad  -41.7448 -1.89276 -2.60701
LeftShoulder1  10.0493 -26.4382 -27.244
LeftArm  -84.1857 -56.5529 24.3549
LeftForeArm  8.87275 -22.9993 -4.42652
LeftHand  -0.25398 0.0180481 5.50724
RightShoulder  4.087 14.2871 16.2665
RightArm  -73.7322 60.8994 -21.6161
RightForeArm  -7.16119 16.932 4.14753
RightHand  0.641111 11.3205 3.89596
LeftUpLeg  -52.7869 19.494 -15.9866
LeftLeg  17.3818 -5.44084 -1.84975
LeftFoot  7.6757 -2.00469 11.6447
LeftToes  1.06246e-005 4.65854e-005 -8.18503e-006
532
root  -35.9631 39.1902 0.400485 177.718 -82.7808 -152.154
RightUpLeg  -49.5457 -14.558 8.98542
RightLeg  19.2257 -0.683322 -0.221263
RightFoot  6.77652 0.376252 -2.06767
RightToes  0.000482159 0.542163 -0.142577
Spine  67.5839 -3.04167 5.87179
Spine1  8.5486 3.04406 -7.36701
HEad  -42.029 -1.7888 -2.82515
LeftShoulder1  10.2405 -26.3055 -28.0602
LeftArm  -85.6399 -57.0367 25.8993
LeftForeArm  7.74926 -24.0776 -4.76491
LeftHand  -0.25398 0.0180481 5.50724
RightShoulder  4.06958 14.0239 16.5358
RightArm  -75.2405 60.6525 -22.2917
RightForeArm  -9.37861 19.1588 4.60917
RightHand  0.403202 12.1348 2.08519
LeftUpLeg  -53.5721 19.5809 -16.59
LeftLeg  17.9472 -5.6458 -1.77357
LeftFoot  7.62099 -2.03371 11.8526
LeftToes  1.06246e-005 4.65854e-005 -8.18503e-006
533
root  -36.0216 39.1723 0.331045 178.212 -82.8066 -152.631
RightUpLeg  -49.8322 -14.4726 9.10791
RightLeg  19.9548 -0.780737 -0.453685
RightFoot  6.4212 0.41146 -2.34948
RightToes  0.000482159 0.542163 -0.142577
Spine  67.6471 -3.02162 5.79515
Spine1  8.89071 3.01494 -7.48433
HEad  -41.9461 -1.71755 -3.3741
LeftShoulder1  10.2268 -26.3154 -28.0017
LeftArm  -88.4997 -57.5883 27.1832
LeftForeArm  6.49579 -23.0928 -4.52401
LeftHand  -0.25398 0.0180481 5.50724
RightShoulder  4.11607 13.9632 16.913
RightArm  -77.7595 61.0748 -23.2331
RightForeArm  -9.30133 19.1094 4.50385
RightHand  0.585908 12.4717 3.22746
LeftUpLeg  -53.8158 19.4298 -16.469
LeftLeg  18.559 -5.28293 -1.64281
LeftFoot  7.59013 -2.05759 12.0149
LeftToes  1.06246e-005 4.65854e-005 -8.18503e-006
